<?xml version="1.0"?>
<svg width="800" height="616" xmlns="http://www.w3.org/2000/svg">
 <g>
  <title>Logo bephpug</title>
  <path id="svg_2" d="m391.600006,123c-0.320007,-2.379997 2.97998,-4.18 4.75,-2.489998c1.279999,1.269997 2.350006,2.739998 3.529999,4.099998c1.839996,-0.889999 3.559998,-3.629997 5.799988,-2.400002c1.26001,0.580002 2.339996,1.459999 3.51001,2.200005c1.600006,-1.630005 2.829987,-3.700005 4.869995,-4.830002c1.519989,0.25 3.679993,0.739998 3.630005,2.699997c0.299988,3.620003 -3.149994,6.050003 -4.390015,9.199997c-1.789978,2.860001 1.75,5.590012 1.480011,8.590012c0.26001,3.709991 -2.519989,6.459991 -4.190002,9.469986c-0.5,3.350006 -0.059998,6.770004 0,10.139999c4.100006,0.360001 8.230011,-0.039993 12.339996,0.330002c1.830017,0.050003 3.050018,1.650009 3.369995,3.330002c2.610016,12.240005 4.900024,24.550003 7.550018,36.779999c0.579987,3.450012 4.630005,2.470001 7.130005,2.62001c3.160004,-0.389999 7.470001,0.939987 9.539978,-2.240005c3.360016,-6.039993 6.27002,-12.330002 9.610016,-18.380005c1.889984,-4.029999 7.179993,-2.339996 10.619995,-1.819992c0.609985,4.289993 -0.820007,8.459991 -1.709991,12.599991c-0.399994,2.389999 -2.450012,3.960007 -3.330017,6.12001c1.230011,6.339996 2.850006,12.610001 3.740021,19c-0.77002,6.619995 -7.140015,11.509995 -7.220001,18.300003c5.919983,0.5 11.859985,0.119995 17.799988,0.269989c1.829987,-0.12999 3.040009,1.839996 3.110016,3.480011c0.159973,2.859985 0.059998,5.729996 0.23999,8.589996c4.820007,1.039993 9.73999,0.309998 14.619995,0.410004c60.690002,0.019989 121.380005,-0.210007 182.070007,-0.26001c3.75,-0.179993 9.299988,1.400009 8.899963,6.119995c0.150024,33.02002 -0.409973,66.040009 -0.389954,99.059998c-13.119995,0.02002 -26.23999,0.01001 -39.360046,0.01001c0.02002,-15.660004 0.27002,-31.309998 0.080017,-46.959991c-0.219971,-3.059998 -3.880005,-3.180023 -6.209961,-3.059998c-18,0.220001 -36.02002,-0.360016 -54,0.279999c-0.380005,1.549988 -0.710022,3.130005 -0.680054,4.72998c0.040039,15.01001 0.050049,30.01001 0.040039,45.01001c-12.900024,0 -25.799988,0 -38.690002,0c-0.160034,-16.549988 0.5,-33.119995 -0.23999,-49.649994c-3.440002,-0.910004 -7.02002,-0.600006 -10.530029,-0.630005c-14.679993,0 -29.359985,0.01001 -44.039978,-0.029999c-1.870026,-0.029999 -3.720001,0.230011 -5.540009,0.579987c-0.529999,16.559998 -0.089996,33.150024 -0.23999,49.730011c-12.880005,0 -25.77002,0 -38.650024,0c-0.099976,-16.5 0.300018,-33.01001 -0.119995,-49.5c-1.440002,-0.369995 -2.859985,-0.839996 -4.350006,-0.820007c-27.359985,-0.009979 -54.72998,-0.059998 -82.089996,-0.130005c-1.47998,0.02002 -2.949982,0.140015 -4.419983,0.27002c-0.559998,3.369995 -0.880005,6.769989 -0.850006,10.190002c0.190002,13.329987 -0.179993,26.660004 0.169983,39.98999c-12.819977,0 -25.629974,0.01001 -38.449982,-0.01001c0.01001,-15.679993 0.059998,-31.349976 0.01001,-47.029999c0.23999,-1.649994 -0.890015,-3.559998 -2.710022,-3.459991c-17.910004,0.079987 -35.819977,-0.190002 -53.72998,-0.23999c-2.210022,-0.27002 -4.839996,1.160004 -4.390015,3.699982c-0.119995,15.680023 0.140015,31.360016 0.149994,47.040009c-12.819992,0 -25.639984,0 -38.459991,-0.01001c-0.089996,-7.660004 0.330002,-15.339996 -0.350006,-22.97998c-0.309998,-9.02002 0.280014,-18.070007 -0.319992,-27.080017c-1.830002,-0.359985 -3.690002,-0.589996 -5.550003,-0.559998c-17.009995,0.029999 -34.020004,-0.089996 -51.029999,-0.179993c-1.709991,-0.110016 -3.899994,1.040009 -3.619995,3.019989c-0.100006,15.930023 0.009995,31.860016 0.050003,47.790009c-12.820007,0 -25.639999,0 -38.460007,0c0,-31 0,-62 0,-92.98999c0.010002,-3.630005 -0.169998,-7.290009 0.410004,-10.880005c2.07,-0.880005 4.169998,-1.930008 6.479996,-1.950012c57.029999,0.970001 114.070007,0.450012 171.110001,0.660004c8.73999,-0.169998 17.51001,0.380005 26.23999,-0.25c1.100006,-3.869995 -1.649994,-9.37999 2.27002,-11.959991c6.429993,-0.75 12.940002,0.279999 19.389984,-0.430008c-1.089996,-6.330002 -5.940002,-11.25 -7.619995,-17.360001c0.450012,-6.98999 2.98999,-13.660004 4.040009,-20.580002c-1.380005,-1.529999 -3.309998,-2.839996 -3.690002,-5c-0.940002,-4.179993 -2.040009,-8.360001 -2.25,-12.659988c3.75,-0.990005 9.859985,-2.360001 11.679993,2.23999c3.140015,5.639999 5.610016,11.630005 8.850006,17.220001c1.980011,3.76001 6.720001,2.380005 10.139984,2.650009c2.440002,-0.090012 6.490021,0.459991 6.990021,-2.830002c2.199982,-11.559998 4.600006,-23.080002 6.899994,-34.630005c0.380005,-1.570007 0.540009,-3.289993 1.649994,-4.559998c4.769989,-1.51001 9.869995,-0.360001 14.76001,-1.220001c-0.100006,-3.399994 0.449982,-6.889999 -0.240021,-10.240005c-1.769989,-2.550003 -4.399994,-4.929993 -4.449982,-8.259995c-0.309998,-2.820007 1.869995,-5.050003 2.179993,-7.75c-1.019989,-3.740005 -4.949982,-6.25 -5.23999,-10.220001z" fill="#7f7f7f"/>
  <path id="svg_3" d="m354.209991,372.350006c12.200012,-1.76001 24.420013,-3.390015 36.619995,-5.100006c-3.48999,17.929993 -8.019989,35.660004 -10.949982,53.700012c3.829987,-4.240021 8.389984,-8.240021 14.22998,-9.190002c7.350006,-1.080017 15.330017,-1.330017 22.190002,1.970001c7.360016,3.359985 12.440002,11.119995 12.540009,19.220001c0.980011,19.899994 -7.029999,38.639984 -10.100006,58.019989c-0.349976,3.130005 -0.299988,6.799988 2.089996,9.179993c2.76001,1.899994 6.380005,1.02002 9.27002,-0.109985c3.970001,-2 6.029999,-6.220001 7.929993,-10.01001c1.98999,-4.450012 4.299988,-8.820007 5.350006,-13.609985c5.149994,-24.279999 9.76001,-48.680023 15.399994,-72.850006c11.860016,0.029999 23.730011,-0.119995 35.589996,0.089996c-1.049988,5.029999 -2.169983,10.059998 -3.269989,15.079987c9.199982,-8.25 22.920013,-10.209991 34.449982,-6.319977c7.830017,2.599976 13.309998,9.849976 15.559998,17.559998c2.390015,8.779999 2.850037,18.049988 1.710022,27.059998c-1.059998,16.339996 -5.419983,32.669983 -14.150024,46.630005c-7.440002,11.660004 -19.73999,20.48996 -33.589996,22.339996c-6.369995,0.849976 -13.089996,1.309998 -19.23999,-0.850037c-2.929993,-0.929993 -4.690002,-3.619995 -6.519989,-5.879944c-3.160004,16.189941 -6.420013,32.359985 -9.380005,48.589966c-0.410004,1.710022 -0.540009,4.26001 -2.830017,4.369995c-11.879974,2.52002 -23.639984,5.669983 -35.599976,7.76001c4.419983,-20.409973 8.690002,-40.869995 13,-61.309998c-4.730011,3.179993 -9.680023,6.309998 -15.369995,7.369995c-9.790009,1.869995 -20.77002,-0.049988 -28.300018,-6.900024c-7.679993,-7.379974 -8.139984,-19.179962 -6.359985,-29.029968c2.049988,-14.550018 7.160004,-28.5 8.910004,-43.100006c0.22998,-3.350006 0.439972,-7.070007 -1.490021,-9.98999c-2.619995,-3.210022 -7.679993,-2.130005 -10.160004,0.690002c-7.059998,7.079987 -9.309998,17.23999 -11.079987,26.720001c-4,20.199982 -8.709991,40.23999 -12.649994,60.440002c-11.980011,0.23999 -23.970001,0.26001 -35.950012,0c4.640015,-20.860016 8.630005,-41.860016 13.170013,-62.730011c6.470001,-29.910004 12.309998,-59.940002 18.97998,-89.809998z" fill="#6d6d96"/>
  <path id="svg_4" d="m63.77,371.5c12.249996,-1.920013 24.569996,-3.459991 36.859997,-5.190002c-3.339996,16.309998 -6.82,32.580017 -10.379997,48.839996c3.959999,-2.199982 8,-4.899994 12.709999,-4.850006c4.540001,-0.039978 9.270004,-0.319977 13.550003,1.470001c6.799995,2.610016 11.999992,8.640015 14.269997,15.490021c3.940002,10.789978 3.190002,22.47998 2.610001,33.73999c-2.649994,18.410004 -9.93,36.809998 -23.360001,50.029999c-7.959999,7.019989 -17.799995,12.269989 -28.389999,13.779999c-7.769997,1.169983 -15.879997,1.419983 -23.489998,-0.809998c-8.16,-2.590027 -15.260002,-9.01001 -17.77,-17.320007c-2.290001,-7.25 -2.09,-15.019989 -0.470001,-22.389984c7.650002,-37.649994 16.16,-75.140015 23.860001,-112.790009z" fill="#010101"/>
  <path id="svg_5" d="m244.75,403.579987c11.830017,0.02002 23.670013,-0.129974 35.5,0.080017c-0.910004,5.059998 -2.049988,10.079987 -3.130005,15.100006c8.950012,-8.110016 22.300018,-10.080017 33.649994,-6.600006c8.220001,2.389984 13.980011,9.859985 16.339996,17.829987c3.730011,12.890015 2.200012,26.5 0.230011,39.559998c-2.549988,13.550018 -7.169983,27.110016 -15.600006,38.170013c-7.919983,10.360016 -20.109985,17.499969 -33.179993,18.629974c-5.570007,0.490051 -11.389984,0.75 -16.730011,-1.190002c-2.919983,-0.940002 -4.689972,-3.599976 -6.539993,-5.839966c-3.369995,17.429993 -6.860001,34.849976 -10.039993,52.309998c-12.360001,2.950012 -24.759995,5.809998 -37.210007,8.359985c1.040009,-9.22998 3.540009,-18.200012 5.300003,-27.299988c3.210007,-16.369995 7.220001,-32.580017 10.050003,-49.01001c1.889999,-6.669983 3.410004,-13.470001 3.889999,-20.399994c3.970001,-13.200012 6.070007,-26.889984 9.009995,-40.350006c2.87001,-13.100006 5.180008,-26.339996 8.460007,-39.350006z" fill="#6d6d96"/>
  <path id="svg_6" d="m177.050003,412.119995c10.809998,-4.040009 23.050003,-4.690002 34.009995,-0.829987c6.01001,2.100006 9.820007,7.919983 11.290009,13.880005c1.619995,11.209991 -0.810013,23.199982 -7.950012,32.179993c-7.529999,9.23999 -17.679993,16.519989 -29.089996,20.139984c-4.119995,1.420013 -8.520004,1.52002 -12.73999,2.460022c-0.640015,5.199982 -0.690002,10.629974 0.539993,15.75c0.819992,4.109985 4.910004,6.819977 8.940002,6.949982c5.919998,0.350006 12.029999,0.140015 17.580002,-2.190002c9.119995,-3.839996 15.419998,-11.789978 22.649994,-18.179993c-0.479996,6.929993 -2,13.730011 -3.889999,20.399994c-9,10.609985 -21.309998,18.669983 -34.990005,21.650024c-12.089996,2.519958 -25.669998,1.679993 -36.009995,-5.640015c-6.860001,-4.51001 -10.259995,-12.580017 -11.580002,-20.410004c-1.899994,-16.649994 0.940002,-33.670013 7.380005,-49.100006c3.449997,-7.509979 7.149994,-15.059998 12.709991,-21.269989c5.830002,-6.660004 12.980011,-12.279999 21.150009,-15.790009z" fill="#010101"/>
  <path id="svg_7" d="m559.609985,411.529999c12,0.079987 24,-0.079987 36,0.089996c-5,23.830017 -10.029968,47.649994 -14.799988,71.529999c-1.080017,5.059998 -2.359985,10.51001 -0.809998,15.580017c1.159973,3.539978 5.580017,2.690002 8.119995,1.289978c6.210022,-4.109985 8.97998,-11.5 10.72998,-18.410004c5.130005,-23.319977 9.960022,-46.709991 14.820007,-70.079987c12.02002,0.070007 24.030029,-0.040009 36.049988,0.059998c-4.389954,21.200012 -8.829956,42.390015 -13.179993,63.600006c-1.130005,7.720001 -4.329956,15.380005 -2.97998,23.269989c4.090027,5.25 12.309998,2.410004 15.530029,-2.449982c5.129944,-5.540009 3.629944,-13.440002 4.659973,-20.279999c2.849976,-17.809998 9.690002,-35.490021 22.109985,-48.860016c7.450012,-8.419983 17.670044,-14.76001 29.049988,-15.76001c8.930054,-1.309998 20.460022,-1 25.690002,7.680023c-0.23999,-2.410004 -0.380005,-4.820007 -0.529968,-7.230011c11.799988,0.01001 23.599976,-0.070007 35.399963,0.040009c-5.559998,25.48999 -10.969971,51.009979 -16.429993,76.519989c-1.589966,8.190002 -4.029968,16.23999 -4.919983,24.550049c5.119995,-2.790039 10.109985,-6.190033 13.559998,-10.990051c4.23999,-5.589996 6.789978,-12.190002 9.22998,-18.699982c0.27002,-0.300018 0.830017,-0.880005 1.100037,-1.170013c4,-0.220001 8.02002,-0.029999 12.039978,-0.070007c-1.419983,9.240021 -5.789978,17.790009 -10.799988,25.580017c-6.309998,9.73999 -16.690002,16.219971 -27.72998,19.330017c-3.100037,13.449951 -4.73999,28 -13.650024,39.169983c-6.23999,7.880005 -15.679993,13.48999 -25.839966,14.059998c-10.690002,1.23999 -23.51001,-1.720032 -29.320007,-11.609985c-3.880005,-7.700012 -3.929993,-17.530029 0.72998,-24.920044c7.279968,-11.22998 20.380005,-16.279968 32.349976,-20.869995c0.75,-2.440002 1.440002,-4.899963 2.110046,-7.359985c-9.650024,13.369995 -30.590027,15.27002 -43.240051,5.220032c-3.889954,-3.030029 -6.309998,-7.410034 -8.5,-11.730042c-5.690002,6.609985 -12.099976,13.100037 -20.629944,15.780029c-9.060059,2.859985 -19.900024,3.809998 -28.090027,-1.859985c-5.450012,-3.640015 -7.5,-10.369995 -8.320007,-16.540039c-3.409973,7.130005 -8.570007,13.780029 -15.830017,17.26001c-10.149963,5.23999 -23.75,4.780029 -32.47998,-3.030029c-4.469971,-3.799988 -6.869995,-9.519958 -7.549988,-15.249969c-1.710022,-8.110016 0.349976,-16.309998 1.690002,-24.309998c4.97998,-23.019989 9.769958,-46.080017 14.659973,-69.130005z" fill="#010101"/>
  <path id="svg_8" d="m188.580002,431.600006c2.459991,-3.01001 5.229996,-6.529999 9.349991,-7.070007c2.540009,-0.649994 3.5,2.480011 3.560013,4.459991c0.12999,8.900024 -2.87001,17.930023 -8.75,24.680023c-4.639999,5.519989 -10.770004,10.869995 -18.37001,11.019989c3.110001,-11.610016 7.180008,-23.220001 14.210007,-33.089996z" fill="#fefefe"/>
  <path id="svg_9" d="m713.400024,429.350006c3.559998,-1.790009 8.649963,-1.240021 10.97998,2.23999c0.580017,2.200012 0.099976,4.480011 -0.419983,6.640015c-3.440002,15.299988 -6.679993,30.649994 -9.929993,45.98999c-1.400024,6.399994 -5.160034,12.51001 -11.02002,15.700012c-2.640015,1.009979 -5.809998,2.359985 -8.429993,0.589996c-2.76001,-1.820007 -3.920044,-5.339996 -4.280029,-8.480011c-1.130005,-17.160004 2.690002,-34.660004 11.01001,-49.720001c3.330017,-4.869995 6.400024,-10.519989 12.090027,-12.959991z" fill="#fefefe"/>
  <path id="svg_10" d="m93.32,430.23999c2.610001,-0.299988 5.660004,-1.440002 7.900002,0.540009c3.440002,2.860016 4.900002,7.410004 5.409996,11.720001c2.170006,13.790009 -1.299995,27.809998 -6.649994,40.5c-2.300003,5.309998 -5.300003,10.450012 -9.520004,14.470001c-3.760002,3.579987 -10.220001,3.779999 -13.970001,0.100006c-2.829994,-3.690002 -1.68,-8.52002 -0.739998,-12.660004c3.699997,-16.950012 7.489998,-33.880005 11,-50.869995c0.389999,-3.059998 4.199997,-3.200012 6.57,-3.800018z" fill="#fefefe"/>
  <path id="svg_11" d="m282.380005,431.290009c3.109985,-1.320007 7.320007,-1.02002 9.309998,2.049988c2.829987,4.26001 2.910004,9.679993 2.859985,14.630005c-0.559998,11.940002 -2.409973,23.920013 -6.129974,35.299988c-2.430023,6.559998 -5.470001,13.730011 -12.02002,17.140015c-4.72998,3.290009 -11.199982,4.23999 -16.110016,0.75c3.790009,-19.540009 8.040009,-39 12.210022,-58.470001c0.959991,-5.209991 5.089996,-9.429993 9.880005,-11.399994z" fill="#fefefe"/>
  <path id="svg_12" d="m496.380005,431.299988c2.889984,-1.169983 6.779999,-1.149994 8.880005,1.5c2.669983,3.200012 3.039978,7.620026 3.329987,11.630005c0.149994,9.779999 -1.5,19.490021 -3.410004,29.059998c-1.699982,7.220001 -3.899994,14.470001 -7.97998,20.730011c-2.290009,3.730011 -6.190002,6.049988 -10.029999,7.899994c-3.990021,1.830017 -9.330017,2.119995 -12.610016,-1.220001c0.049988,-0.690002 0.170013,-2.079987 0.230011,-2.769989c3.72998,-18.380005 7.789978,-36.690002 11.600006,-55.050018c0.869995,-5.369995 5.069977,-9.769989 9.98999,-11.779999z" fill="#fefefe"/>
  <path id="svg_13" d="m687.530029,547.48999c3.459961,-5.01001 9.189941,-7.529968 14.48999,-10.099976c-2.119995,7.200012 -3.050049,15.669983 -9.26001,20.719971c-1.790039,0.780029 -4.600037,0.809998 -5.76001,-1.059998c-2.609985,-2.72998 -1.219971,-6.779968 0.530029,-9.559998z" fill="#fefefe"/>
 </g>
</svg>
