<?xml version="1.0" encoding="UTF-8" standalone="no"?>
<svg
   xmlns:dc="http://purl.org/dc/elements/1.1/"
   xmlns:cc="http://creativecommons.org/ns#"
   xmlns:rdf="http://www.w3.org/1999/02/22-rdf-syntax-ns#"
   xmlns:svg="http://www.w3.org/2000/svg"
   xmlns="http://www.w3.org/2000/svg"
   xmlns:sodipodi="http://sodipodi.sourceforge.net/DTD/sodipodi-0.dtd"
   xmlns:inkscape="http://www.inkscape.org/namespaces/inkscape"
   width="800"
   height="600"
   id="svg3047"
   version="1.1"
   inkscape:version="0.48.4 r9939"
   sodipodi:docname="bephpug-logo_outset.svg">
  <metadata
     id="metadata3069">
    <rdf:RDF>
      <cc:Work
         rdf:about="">
        <dc:format>image/svg+xml</dc:format>
        <dc:type
           rdf:resource="http://purl.org/dc/dcmitype/StillImage" />
        <dc:title />
      </cc:Work>
    </rdf:RDF>
  </metadata>
  <defs
     id="defs3067" />
  <sodipodi:namedview
     pagecolor="#a525ff"
     bordercolor="#666666"
     borderopacity="1"
     objecttolerance="10"
     gridtolerance="10"
     guidetolerance="10"
     inkscape:pageopacity="0"
     inkscape:pageshadow="2"
     inkscape:window-width="1453"
     inkscape:window-height="1027"
     id="namedview3065"
     showgrid="false"
     fit-margin-top="3"
     fit-margin-left="3"
     fit-margin-right="3"
     fit-margin-bottom="3"
     inkscape:zoom="0.86201299"
     inkscape:cx="370.99946"
     inkscape:cy="129.28233"
     inkscape:window-x="72"
     inkscape:window-y="24"
     inkscape:window-maximized="0"
     inkscape:current-layer="svg3047" />
  <g
     id="g3057">
    <path
       inkscape:connector-curvature="0"
       id="path3024"
       d="m 397.8125,280.5 c -22.36539,3.21332 -44.73594,6.39289 -67.125,9.4375 -13.44171,60.67679 -25.71995,121.70412 -38.65625,182.53125 22.78953,0.35093 45.58795,0.68088 68.375,0 1.75755,-5.12802 2.50388,-11.71258 4.09375,-16.09375 8.30217,12.16806 23.53153,18.82004 38.15625,18.375 -4.08992,19.32149 -8.21006,38.63683 -12.25,57.96875 22.90592,-7.36122 48.84491,-6.05035 69.6875,-18.75 8.46622,-11.55553 6.8537,-26.98439 10.59375,-39.96875 8.25433,1.88851 17.17385,-0.0602 25.28125,-2.25 21.86642,-6.99279 38.69282,-25.50368 45.35714,-47.24655 8.2428,-22.90504 10.86166,-48.94595 3.11161,-72.31595 -7.26728,-17.50471 -26.87927,-28.87677 -45.8125,-25.5625 -3.03849,-0.87678 -4.24932,-4.79304 -7.59375,-5.625 -10.03514,-4.15909 -21.17869,-0.36699 -31.6875,-1.625 -7.72919,-0.011 -15.45833,0.0222 -23.1875,0.0312 -2.69411,8.85168 -4.80374,17.86656 -6.75,26.90625 -7.58309,-13.19604 -23.24005,-20.24809 -38.21875,-19.75 3.30949,-15.45205 6.5563,-30.91892 9.375,-46.46875 -0.91667,0.13542 -1.83333,0.27083 -2.75,0.40625 z"
       style="fill:#ffffff;fill-opacity:1" />
    <path
       inkscape:connector-curvature="0"
       id="path3026"
       d="m 107.9375,279.5625 c -22.662729,3.36193 -45.413948,6.11539 -68.03125,9.78125 -8.157798,48.32444 -23.698975,95.43893 -27.5,144.4375 2.410607,23.96594 26.386009,42.56783 50.1875,39.875 34.459725,-0.13941 64.89087,-27.57551 72.21875,-60.53125 7.15749,-23.77642 8.16016,-52.27803 -7.03125,-73.09375 -6.82933,-7.77861 -16.50969,-12.75408 -26.8125,-14.0625 3.23761,-15.61131 6.44026,-31.23058 9.8125,-46.8125 -0.94792,0.13542 -1.89583,0.27083 -2.84375,0.40625 z"
       style="fill:#ffffff" />
    <path
       inkscape:connector-curvature="0"
       id="path3028"
       d="m 267.09375,319.125 c -13.88013,2.08734 -29.31489,-3.41189 -42.09375,4 -9.99905,8.32827 -8.00039,23.05128 -11.57245,34.41774 -11.07961,53.7359 -24.27567,107.1794 -32.42755,161.42601 0.77554,8.66575 11.49122,13.1381 18.6964,8.8835 16.32278,-3.54726 32.63278,-7.53566 48.9911,-11.10225 3.21819,-14.06937 4.73597,-28.51873 8.40625,-42.5 30.85656,3.62259 60.31459,-18.72641 69.44755,-47.64374 8.71389,-23.27948 12.01942,-49.85971 4.1462,-73.85626 -7.12719,-17.67321 -26.63147,-29.12757 -45.6875,-26.21875 -3.4425,0.22662 -4.01125,-4.54145 -7.375,-5.25 -3.2107,-1.71235 -6.90549,-2.38126 -10.53125,-2.15625 z"
       style="fill:#ffffff;fill-opacity:1" />
    <path
       inkscape:connector-curvature="0"
       id="path3030"
       d="m 185.34375,324.5 c -30.36639,-0.3623 -56.65291,22.51986 -67.09375,49.84375 -9.30238,23.78909 -14.64417,52.25333 -2.25,75.96875 11.55755,20.03951 37.82217,26.6219 59.40625,21.90625 21.19225,-5.0843 43.39778,-17.94118 49.96875,-39.78125 3.43721,-15.65624 3.63853,-31.91147 4.71875,-47.9375 -2.16779,0.1634 -4.2155,0.76258 -6.09375,1.78125 8.45684,-17.87161 6.30093,-42.57584 -10.75,-54.53125 -8.01613,-5.78201 -18.15938,-7.51335 -27.90625,-7.25 z"
       style="fill:#ffffff" />
    <path
       inkscape:connector-curvature="0"
       id="path3032"
       d="m 695.1875,326.53125 c -15.24853,1.27444 -29.24795,9.07758 -39.96875,19.65625 1.28351,-6.16837 2.57962,-12.33411 3.875,-18.5 -41.04979,-0.60395 -82.10447,-0.0734 -123.15625,-0.3125 -5.07088,37.76404 -19.84913,73.99901 -19.125,112.46875 3.34035,23.35786 29.0849,40.51261 51.90625,33.625 6.3876,-1.06194 12.50658,-5.32262 17.9375,-7.21875 16.74186,12.97634 41.27868,9.60995 57.46875,-1.65625 1.45108,1.70788 6.49911,2.0925 3.75,4.84375 -9.6169,18.39405 -2.89647,45.00096 16.75,53.375 27.60491,14.47825 65.12327,-1.7038 74.65625,-30.96875 3.16913,-6.93288 3.0584,-15.72018 7.25,-21.875 28.99436,-13.79211 43.60939,-48.07181 40.65625,-79.25 -5.72318,-0.9243 -7.67174,6.8898 -13.4375,6.5 -4.56188,0.64211 -9.17079,0.0406 -13.75,0.34375 4.97855,-23.25013 9.96214,-46.49919 14.9375,-69.75 -26.57927,-0.73173 -53.19996,-0.0343 -79.75,-1.28125 z"
       style="fill:#ffffff" />
  </g>
  <path
     style="fill:#ffffff"
     d="m 402.5,34.34375 c -3.88244,1.261182 -8.48357,4.431194 -12.125,0.90625 -15.67144,-4.893556 -31.2078,16.030567 -21.34375,29.40625 2.73237,1.790548 -1.43147,4.181113 0.0312,6.8125 -0.0114,2.412845 2.6194,5.743365 -1.1875,6.28125 -9.89274,5.764575 -11.15216,18.368396 -12.625,28.375 -6.08656,-9.203886 -18.41305,-14.48669 -28.9375,-10.4375 -6.31234,0.508247 -15.49945,4.115181 -13.78125,12 0.27406,9.03073 2.79207,17.92099 4.875,26.5 -1.65198,5.82178 -2.3634,12.14787 -1.96875,18.03125 -5.61765,1.95302 -10.48238,6.09553 -12.875,11.59375 -63.87455,0.37833 -127.83804,-1.27619 -191.65625,0.5 -11.869043,3.32465 -16.651531,17.43419 -14.100825,28.53122 -0.256573,36.02025 -0.03108,72.04174 -0.08667,108.06253 23.41667,0 46.83333,0 70.25,0 0.47515,-16.90382 -0.008,-33.81264 0.125,-50.71875 9.4791,-0.16086 18.95925,0.0233 28.4375,0.15625 0.10503,16.85238 1.20074,33.73066 -0.15625,50.5625 23.54167,0 47.08333,0 70.625,0 1.25122,-16.86426 -0.0604,-33.77324 0.28125,-50.65625 9.6454,0.11629 19.29223,0.0811 28.9375,0.21875 -0.1255,16.81222 -0.0886,33.62497 -0.0937,50.4375 23.45833,0 46.91667,0 70.375,0 0.63958,-16.7684 -0.49879,-33.54179 -0.0937,-50.3125 19.95821,-0.12257 39.91748,-0.13705 59.875,0.0937 0.29962,16.73682 -0.7737,33.50195 0.4375,50.21875 23.25,0 46.5,0 69.75,0 1.08957,-16.72351 0.10768,-33.48069 0.40625,-50.21875 9.55166,-0.11645 19.10446,-0.1677 28.65625,-0.0625 0.13616,16.76038 -0.24084,33.52393 0.21875,50.28125 23.375,0 46.75,0 70.125,0 0.69559,-16.64927 0.18164,-33.31263 0.21875,-49.96875 9.69727,-0.0888 19.39765,-0.23036 29.09375,0 0.28534,14.59145 -2.39365,30.11884 2.5625,44.0625 6.36236,8.75165 18.89177,5.45218 28.1875,5.90625 13.5625,0 27.125,0 40.6875,0 -2.03747,-41.38051 2.7854,-83.03205 -1.875,-124.25 -6.2976,-12.85048 -22.66622,-14.42288 -35.34375,-12.9375 -56.61464,-0.12479 -113.23044,0.67845 -169.84375,0.0312 -2.3255,-5.53412 -7.39927,-9.3034 -12.6875,-11.75 1.70029,-8.65201 -4.84754,-17.53898 -0.15625,-25.59375 2.47924,-8.5758 3.39695,-19.01474 -1.53125,-26.75 C 463.00835,90.380336 443.4272,93.320926 435.96875,106 434.2224,95.310944 431.60556,82.448821 421.5625,76.59375 c -1.5114,-0.668053 0.87805,-3.476482 0.0312,-5.09375 -0.86767,-3.606471 -0.60214,-7.14066 1.6875,-10.125 5.01599,-12.60924 -5.7347,-28.513282 -19.625,-27.0625 -0.38316,0.02617 -0.77852,-0.04928 -1.15625,0.03125 z"
     id="svg_2-9"
     inkscape:connector-curvature="0" />
  <path
     style="fill:#7f7f7f"
     inkscape:connector-curvature="0"
     d="m 382.12857,54.01214 c -0.32001,-2.38 2.97998,-4.18 4.75,-2.49 1.27999,1.27 2.35,2.74 3.52999,4.1 1.84,-0.89 3.56,-3.63 5.79999,-2.4 1.26001,0.58 2.34,1.46 3.51001,2.2 1.60001,-1.63 2.82999,-3.7 4.87,-4.83 1.51999,0.25 3.67999,0.74 3.63,2.7 0.29999,3.62 -3.14999,6.05 -4.39001,9.19999 -1.78998,2.86001 1.75,5.59002 1.48001,8.59002 0.26001,3.70999 -2.51999,6.45999 -4.19,9.46998 -0.5,3.35001 -0.06,6.77001 0,10.14 4.1,0.36 8.23001,-0.04 12.33999,0.33 1.83002,0.05 3.05002,1.65001 3.37,3.33001 2.61001,12.24 4.90002,24.55 7.55002,36.78 0.57998,3.45001 4.63,2.47 7.13,2.62001 3.16,-0.39 7.47,0.93998 9.53998,-2.24001 3.36001,-6.03999 6.27002,-12.33 9.61001,-18.38 1.88999,-4.03 7.18,-2.34 10.62,-1.82 0.60998,4.29 -0.82001,8.45999 -1.70999,12.59999 -0.4,2.39 -2.45001,3.96001 -3.33002,6.12001 1.23001,6.34 2.85001,12.61 3.74002,19 -0.77002,6.62 -7.14001,11.51 -7.22,18.30001 5.91998,0.5 11.85999,0.11999 17.79999,0.26999 1.82999,-0.12999 3.04001,1.83999 3.11002,3.48001 0.15997,2.85998 0.06,5.72999 0.23999,8.58999 4.82,1.04 9.73999,0.31 14.61999,0.41001 60.69,0.02 121.38001,-0.21001 182.07001,-0.26001 3.75,-0.18 9.29999,1.40001 8.89996,6.11999 0.15002,33.02002 -0.40997,66.04001 -0.38995,99.06 -13.12,0.02 -26.23999,0.01 -39.36005,0.01 0.02,-15.66 0.27002,-31.31 0.08,-46.95999 -0.21997,-3.06 -3.88001,-3.18002 -6.20996,-3.06 -18,0.22 -36.02002,-0.36001 -54,0.28 -0.38001,1.54999 -0.71003,3.13 -0.68006,4.72998 0.04,15.01001 0.05,30.01001 0.04,45.01001 -12.90002,0 -25.79999,0 -38.69,0 -0.16003,-16.54999 0.5,-33.12 -0.23999,-49.64999 -3.43994,-0.91 -7.01996,-0.6 -10.52997,-0.63 -14.67999,0 -29.35998,0.01 -44.03998,-0.03 -1.87002,-0.03 -3.72,0.23001 -5.54001,0.57999 -0.53,16.56 -0.09,33.15002 -0.23999,49.73001 -12.88,0 -25.77002,0 -38.65002,0 -0.1,-16.5 0.30002,-33.01001 -0.12,-49.5 -1.44,-0.36999 -2.85998,-0.84 -4.35,-0.82001 -27.35999,-0.01 -54.72998,-0.06 -82.09,-0.13 -1.47998,0.02 -2.94998,0.14001 -4.41998,0.27002 -0.56,3.36999 -0.88001,6.76999 -0.85001,10.19 0.19001,13.32999 -0.17999,26.66 0.16999,39.98999 -12.81998,0 -25.62998,0.01 -38.44999,-0.01 0.01,-15.67999 0.06,-31.34998 0.01,-47.03 0.23999,-1.64999 -0.89001,-3.56 -2.71002,-3.45999 -17.91,0.08 -35.81997,-0.19 -53.72998,-0.23999 -2.21002,-0.27002 -4.83999,1.16 -4.39001,3.69998 -0.12,15.68003 0.14001,31.36002 0.14999,47.04001 -12.81999,0 -25.63998,0 -38.45999,-0.01 -0.09,-7.66 0.33,-15.33999 -0.35001,-22.97998 -0.30999,-9.02002 0.28002,-18.07001 -0.31999,-27.08002 -1.83,-0.35998 -3.69,-0.58999 -5.55,-0.55999 -17.01,0.03 -34.02,-0.09 -51.03,-0.18 -1.70999,-0.11001 -3.89999,1.04001 -3.61999,3.01999 -0.10001,15.93002 0.01,31.86002 0.05,47.79001 -12.82001,0 -25.64,0 -38.46001,0 0,-31 0,-62 0,-92.98999 0.01,-3.63 -0.17,-7.29001 0.41001,-10.88 2.07,-0.88001 4.16999,-1.93001 6.47999,-1.95002 57.03,0.97 114.07001,0.45002 171.11,0.66001 8.73999,-0.17 17.51001,0.38 26.23999,-0.25 1.10001,-3.87 -1.64999,-9.37999 2.27002,-11.95999 6.43,-0.75 12.94,0.28 19.38999,-0.43001 -1.09,-6.33 -5.94001,-11.25 -7.62,-17.36 0.45001,-6.98999 2.98999,-13.66001 4.04001,-20.58 -1.38,-1.53 -3.31,-2.84 -3.69,-5 -0.94,-4.18 -2.04001,-8.36001 -2.25,-12.65999 3.75,-0.99001 9.85998,-2.36 11.67999,2.23999 3.14002,5.64 5.61002,11.63 8.85001,17.22 1.98001,3.76001 6.72,2.38 10.13998,2.65001 2.44,-0.09 6.49002,0.45999 6.99002,-2.83 2.19998,-11.56 4.60001,-23.08001 6.9,-34.63001 0.38,-1.57001 0.54001,-3.28999 1.64999,-4.56 4.76999,-1.51001 9.87,-0.36 14.76001,-1.22 -0.10001,-3.39999 0.44998,-6.89 -0.24002,-10.24 -1.76999,-2.55001 -4.39999,-4.93 -4.44998,-8.26 -0.31,-2.82001 1.86999,-5.05 2.17999,-7.75 -1.01999,-3.74 -4.94998,-6.25 -5.23999,-10.22 z"
     id="svg_2" />
  <path
     inkscape:connector-curvature="0"
     id="svg_3"
     d="m 381.37231,298.26214 c -12.19998,1.70999 -24.42499,3.33374 -36.625,5.09375 -6.66998,29.87 -12.53,59.9025 -19,89.8125 -4.54001,20.87 -8.51623,41.85873 -13.15625,62.71875 11.98001,0.26001 23.95749,0.23999 35.9375,0 3.94,-20.20001 8.65625,-40.23752 12.65625,-60.4375 1.76999,-9.48001 4.03375,-19.63876 11.09375,-26.71875 2.48001,-2.82001 7.53625,-3.89752 10.15625,-0.6875 1.92999,2.91998 1.69873,6.64999 1.46875,10 -1.75,14.60001 -6.85626,28.54373 -8.90625,43.09375 -1.78,9.85001 -1.30499,21.65128 6.375,29.03125 7.53,6.85004 18.49124,8.77625 28.28125,6.90625 5.68997,-1.06 10.64499,-4.19501 15.375,-7.375 -4.31,20.44 -8.58002,40.90253 -13,61.3125 11.95999,-2.09003 23.74503,-5.22998 35.625,-7.75 2.29001,-0.10999 2.4025,-2.66498 2.8125,-4.375 2.95999,-16.22998 6.215,-32.40381 9.375,-48.59375 1.82999,2.25995 3.60126,4.94501 6.53125,5.875 6.14999,2.16003 12.88,1.69373 19.25,0.84375 13.85001,-1.85004 26.1225,-10.68375 33.5625,-22.34375 8.73004,-13.96002 13.09625,-30.285 14.15625,-46.625 1.14001,-9.01001 0.70251,-18.2825 -1.6875,-27.0625 -2.25,-7.71002 -7.73248,-14.96252 -15.5625,-17.5625 -11.52997,-3.89001 -25.26877,-1.90625 -34.46875,6.34375 1.10001,-5.01999 2.23126,-10.06375 3.28125,-15.09375 -11.85998,-0.20999 -23.73373,-0.0638 -35.59375,-0.0937 -5.63998,24.16998 -10.25626,48.56375 -15.40625,72.84375 -1.05002,4.78998 -3.35376,9.17499 -5.34375,13.625 -1.89999,3.79001 -3.9675,8 -7.9375,10 -2.89002,1.13 -6.48999,2.02499 -9.25,0.125 -2.38998,-2.38001 -2.44373,-6.0575 -2.09375,-9.1875 3.07001,-19.38 11.07376,-38.13126 10.09375,-58.03125 -0.10001,-8.10001 -5.17123,-15.85877 -12.53125,-19.21875 -6.85999,-3.30002 -14.83749,-3.04877 -22.1875,-1.96875 -5.84,0.94998 -10.42001,4.94748 -14.25,9.1875 2.92999,-18.04001 7.47876,-35.75751 10.96875,-53.6875 z m 109.0625,63.3125 c 2.02979,-0.0469 4.03125,0.59375 5.34375,2.25 2.66998,3.20001 3.05374,7.61502 3.34375,11.625 0.14999,9.78 -1.49625,19.49252 -3.40625,29.0625 -1.69998,7.22 -3.92001,14.45874 -8,20.71875 -2.29001,3.73001 -6.19125,6.05624 -10.03125,7.90625 -3.99002,1.83002 -9.31375,2.12125 -12.59375,-1.21875 0.05,-0.69 0.15875,-2.09125 0.21875,-2.78125 3.72998,-18.38 7.78372,-36.67123 11.59375,-55.03125 0.87,-5.37 5.07999,-9.77124 10,-11.78125 1.08374,-0.43874 2.31338,-0.72188 3.53125,-0.75 z"
     style="fill:#6e6d96;fill-opacity:1" />
  <path
     inkscape:connector-curvature="0"
     id="svg_4"
     d="m 91.15356,297.32464 c -12.290001,1.73001 -24.593754,3.26749 -36.84375,5.1875 -7.700001,37.64999 -16.224998,75.13126 -23.875,112.78125 -1.619999,7.36999 -1.821251,15.15625 0.46875,22.40625 2.509998,8.31 9.62125,14.72247 17.78125,17.3125 7.610001,2.22998 15.698753,1.98248 23.46875,0.8125 10.590004,-1.51001 20.44625,-6.76126 28.40625,-13.78125 13.43,-13.22 20.69376,-31.62125 23.34375,-50.03125 0.58,-11.26001 1.34625,-22.96002 -2.59375,-33.75 -2.27,-6.85001 -7.48126,-12.85873 -14.28125,-15.46875 -4.28,-1.78998 -8.99125,-1.50873 -13.53125,-1.46875 -4.709999,-0.05 -8.758751,2.64377 -12.71875,4.84375 3.559997,-16.25998 7.035004,-32.53375 10.375,-48.84375 z m -3.21875,63.34375 c 1.368751,-0.075 2.6925,0.13499 3.8125,1.125 3.44,2.86002 4.89626,7.40875 5.40625,11.71875 2.17001,13.79001 -1.30625,27.81 -6.65625,40.5 -2.300003,5.31 -5.279999,10.44876 -9.5,14.46875 -3.760002,3.57999 -10.21875,3.77374 -13.96875,0.0937 -2.829994,-3.69 -1.690002,-8.51627 -0.75,-12.65625 3.699997,-16.95001 7.489998,-33.88501 11,-50.875 0.389999,-3.06 4.192497,-3.18124 6.5625,-3.78125 1.305001,-0.14999 2.724999,-0.51875 4.09375,-0.59375 z" />
  <path
     inkscape:connector-curvature="0"
     style="fill:#6e6d96;fill-opacity:1"
     id="svg_5"
     d="m 253.02856,334.57464 c -5.9175,0.009 -11.83499,0.0413 -17.75,0.0312 -3.28,13.01001 -5.59874,26.24374 -8.46875,39.34375 -2.93999,13.46002 -5.03,27.14374 -9,40.34375 -0.48,6.92999 -2.01625,13.73627 -3.90625,20.40625 -2.83,16.42999 -6.82124,32.63 -10.03125,49 -1.75999,9.09998 -4.27249,18.08252 -5.3125,27.3125 12.45001,-2.54999 24.85875,-5.42499 37.21875,-8.375 3.17999,-17.46002 6.66126,-34.88251 10.03125,-52.3125 1.85002,2.23999 3.64252,4.90375 6.5625,5.84375 5.34003,1.94 11.14874,1.67755 16.71875,1.1875 13.07001,-1.13 25.26752,-8.26498 33.1875,-18.625 8.43002,-11.06 13.04376,-24.60623 15.59375,-38.15625 1.97,-13.06 3.51126,-26.67248 -0.21875,-39.5625 -2.35999,-7.97 -8.12375,-15.45377 -16.34375,-17.84375 -11.34998,-3.48001 -24.70624,-1.51627 -33.65625,6.59375 1.08002,-5.02002 2.215,-10.03375 3.125,-15.09375 -5.91499,-0.105 -11.8325,-0.1025 -17.75,-0.0937 z m 23.65625,27 c 2.16758,0.0354 4.28751,0.8625 5.53125,2.78125 2.82999,4.26001 2.92502,9.67499 2.875,14.625 -0.56,11.94 -2.43625,23.93252 -6.15625,35.3125 -2.43002,6.56 -5.44998,13.715 -12,17.125 -4.72998,3.29001 -11.21497,4.23999 -16.125,0.75 3.79001,-19.54001 8.04874,-38.99875 12.21875,-58.46875 0.95999,-5.20999 5.08499,-9.43625 9.875,-11.40625 1.16624,-0.495 2.4807,-0.74002 3.78125,-0.71875 z" />
  <path
     inkscape:connector-curvature="0"
     id="svg_6"
     d="m 186.68481,339.73089 c -6.50322,-0.0721 -13.01313,1.13374 -19.09375,3.40625 -8.17,3.51001 -15.32625,9.12125 -21.15625,15.78125 -5.56,6.20999 -9.26875,13.77127 -12.71875,21.28125 -6.44,15.42999 -9.27499,32.44376 -7.375,49.09375 1.32001,7.82999 4.7025,15.89624 11.5625,20.40625 10.34,7.32001 23.94125,8.17621 36.03125,5.65625 13.68001,-2.98004 25.96875,-11.04626 34.96875,-21.65625 1.89,-6.66998 3.42625,-13.47626 3.90625,-20.40625 -7.23,6.39002 -13.53626,14.3475 -22.65625,18.1875 -5.55,2.33002 -11.6425,2.53751 -17.5625,2.1875 -4.03,-0.13001 -8.11751,-2.85877 -8.9375,-6.96875 -1.23,-5.12003 -1.20252,-10.55002 -0.5625,-15.75 4.21999,-0.94 8.63001,-1.01749 12.75,-2.4375 11.41,-3.62 21.56375,-10.91626 29.09375,-20.15625 7.14,-8.98001 9.55749,-20.97751 7.9375,-32.1875 -1.47,-5.96002 -5.27124,-11.77499 -11.28125,-13.875 -4.795,-1.68876 -9.84819,-2.50644 -14.90625,-2.5625 z m 2.21875,15.71875 c 2.19859,-0.18446 3.06874,2.70627 3.125,4.5625 0.12999,8.90002 -2.87001,17.90625 -8.75,24.65625 -4.64,5.51999 -10.77499,10.88126 -18.375,11.03125 3.11,-11.61002 7.18875,-23.22375 14.21875,-33.09375 2.45999,-3.01001 5.22375,-6.52249 9.34375,-7.0625 0.15875,-0.0406 0.29093,-0.0815 0.4375,-0.0937 z" />
  <path
     inkscape:connector-curvature="0"
     id="svg_7"
     d="m 702.49731,341.54339 c -2.41844,0.0195 -4.82999,0.26625 -7.0625,0.59375 -11.37994,1 -21.58124,7.33002 -29.03125,15.75 -12.41998,13.37 -19.27502,31.03375 -22.125,48.84375 -1.03003,6.84 0.47369,14.74124 -4.65625,20.28125 -3.22003,4.85999 -11.44122,7.71875 -15.53125,2.46875 -1.34998,-7.88998 1.83875,-15.56125 2.96875,-23.28125 4.35004,-21.20999 8.79755,-42.39374 13.1875,-63.59375 -12.01996,-0.10001 -24.04248,0.008 -36.0625,-0.0625 -4.85999,23.37 -9.6825,46.77377 -14.8125,70.09375 -1.75,6.91 -4.50873,14.29627 -10.71875,18.40625 -2.53998,1.40002 -6.96503,2.22748 -8.125,-1.3125 -1.54999,-5.07001 -0.26752,-10.5025 0.8125,-15.5625 4.77002,-23.88001 9.8125,-47.70123 14.8125,-71.53125 -12,-0.16998 -24,-0.0138 -36,-0.0937 -4.89002,23.04999 -9.70752,46.10501 -14.6875,69.125 -1.34003,8 -3.39752,16.20248 -1.6875,24.3125 0.67999,5.73001 3.09253,11.45001 7.5625,15.25 8.72998,7.81006 22.31879,8.27124 32.46875,3.03125 7.26001,-3.47998 12.43378,-10.12 15.84375,-17.25 0.82001,6.17004 2.86249,12.89124 8.3125,16.53125 8.19,5.66998 19.03369,4.70374 28.09375,1.84375 8.52997,-2.67999 14.935,-9.14001 20.625,-15.75 2.19,4.32001 4.61005,8.68872 8.5,11.71875 12.65002,10.04999 33.59998,8.15125 43.25,-5.21875 -0.67004,2.46002 -1.375,4.90375 -2.125,7.34375 -11.96997,4.59003 -25.06378,9.64502 -32.34375,20.875 -4.65997,7.39001 -4.59875,17.23749 -0.71875,24.9375 5.81,9.88995 18.6225,12.83374 29.3125,11.59375 10.15997,-0.57001 19.60376,-6.1825 25.84375,-14.0625 8.91003,-11.16998 10.55621,-25.7063 13.65625,-39.15625 11.03998,-3.11005 21.40875,-9.60376 27.71875,-19.34375 5.01001,-7.79001 9.39252,-16.32248 10.8125,-25.5625 -4.01996,0.04 -8.0625,-0.1575 -12.0625,0.0625 -0.27002,0.29001 -0.82373,0.85623 -1.09375,1.15625 -2.44,6.50998 -4.97876,13.12875 -9.21875,18.71875 -3.45001,4.80002 -8.4425,8.17871 -13.5625,10.96875 0.89002,-8.31006 3.31628,-16.34125 4.90625,-24.53125 5.46002,-25.51001 10.8775,-51.04126 16.4375,-76.53125 -11.79999,-0.11002 -23.60626,-0.0212 -35.40625,-0.0312 0.14996,2.41 0.29126,4.80875 0.53125,7.21875 -3.92248,-6.51002 -11.36967,-8.30859 -18.625,-8.25 z m 5.84375,17.8125 c 2.56513,0.03 5.10624,1.07499 6.5625,3.25 0.58002,2.20001 0.11371,4.465 -0.40625,6.625 -3.44,15.29999 -6.6875,30.66 -9.9375,46 -1.40002,6.39999 -5.17126,12.4975 -11.03125,15.6875 -2.64001,1.00998 -5.78626,2.36374 -8.40625,0.59375 -2.76001,-1.82001 -3.92126,-5.32874 -4.28125,-8.46875 -1.13,-17.16 2.67999,-34.65875 11,-49.71875 3.33002,-4.87 6.40375,-10.52875 12.09375,-12.96875 1.335,-0.67125 2.86717,-1.01799 4.40625,-1 z m -15.78125,109.03125 c -2.12,7.20001 -3.07129,15.70001 -9.28125,20.75 -1.79004,0.78003 -4.59003,0.8075 -5.75,-1.0625 -2.60999,-2.72998 -1.21875,-6.78247 0.53125,-9.5625 3.45996,-5.01001 9.19995,-7.55499 14.5,-10.125 z" />
</svg>
