<?xml version="1.0" encoding="UTF-8" standalone="no"?>
<svg
   xmlns:dc="http://purl.org/dc/elements/1.1/"
   xmlns:cc="http://creativecommons.org/ns#"
   xmlns:rdf="http://www.w3.org/1999/02/22-rdf-syntax-ns#"
   xmlns:svg="http://www.w3.org/2000/svg"
   xmlns="http://www.w3.org/2000/svg"
   xmlns:sodipodi="http://sodipodi.sourceforge.net/DTD/sodipodi-0.dtd"
   xmlns:inkscape="http://www.inkscape.org/namespaces/inkscape"
   width="800"
   height="600"
   id="svg3047"
   version="1.1"
   inkscape:version="0.48.4 r9939"
   sodipodi:docname="bephpug-vector-final.svg">
  <metadata
     id="metadata3069">
    <rdf:RDF>
      <cc:Work
         rdf:about="">
        <dc:format>image/svg+xml</dc:format>
        <dc:type
           rdf:resource="http://purl.org/dc/dcmitype/StillImage" />
        <dc:title></dc:title>
      </cc:Work>
    </rdf:RDF>
  </metadata>
  <defs
     id="defs3067" />
  <sodipodi:namedview
     pagecolor="#a525ff"
     bordercolor="#666666"
     borderopacity="1"
     objecttolerance="10"
     gridtolerance="10"
     guidetolerance="10"
     inkscape:pageopacity="0"
     inkscape:pageshadow="2"
     inkscape:window-width="1453"
     inkscape:window-height="1027"
     id="namedview3065"
     showgrid="false"
     fit-margin-top="3"
     fit-margin-left="3"
     fit-margin-right="3"
     fit-margin-bottom="3"
     inkscape:zoom="0.86201299"
     inkscape:cx="370.99946"
     inkscape:cy="129.28233"
     inkscape:window-x="72"
     inkscape:window-y="24"
     inkscape:window-maximized="0"
     inkscape:current-layer="svg3047" />
  <g
     id="g3109"
     transform="translate(-16.405943,-213.27725)">
    <path
       inkscape:connector-curvature="0"
       id="path3024"
       d="m 401.71875,505.65625 c -15.43948,2.21632 -30.90315,4.26051 -46.34375,6.46875 -11.95848,54.50102 -22.97115,109.20706 -34.59375,163.78125 16.08174,0.28709 32.16869,0.357 48.25,0 6.5104,-27.45662 10.01369,-55.76254 18.75,-82.625 1.07182,-2.0551 3.09212,-7.01085 5.65625,-6.375 0.74756,7.72617 -2.05753,15.40561 -3.42257,22.90904 -4.08348,16.63028 -10.29368,35.3908 -2.45243,51.84096 8.50926,15.02702 28.9058,19.78517 44.4375,13.78125 -4.05664,19.07198 -8.04143,38.1592 -12.15625,57.21875 16.25341,-3.31528 33.07712,-5.68649 48.59375,-11.28125 6.18678,-7.47899 4.0875,-17.89757 7.21875,-26.59375 1.1676,-6.44149 2.32217,-12.96217 3.78125,-19.28125 12.5695,4.90955 27.01401,1.76999 38.875,-3.59375 22.6001,-11.98727 33.07319,-38.15302 35.95115,-62.45909 2.16326,-16.16467 2.63984,-34.77134 -7.6074,-48.41591 -9.53739,-11.55122 -26.70268,-14.09192 -40.3125,-9.1875 1.76492,-4.87831 -2.20432,-10.63853 -7.6875,-9.15625 -12.83335,-0.005 -25.66668,-0.0636 -38.5,0 -7.55823,28.34072 -10.69574,57.86959 -19.58641,85.77371 -1.94049,4.25674 -3.87747,11.55383 -9.53859,11.63254 -0.9502,-7.51761 2.91517,-14.64357 3.85261,-22.09793 4.19127,-16.88064 9.89605,-35.77473 2.86614,-52.55832 -7.93778,-14.77425 -28.12995,-18.62714 -43.09375,-13.1875 3.25755,-15.67269 6.88141,-31.26694 9.84375,-47 -0.92708,0.13542 -1.85417,0.27083 -2.78125,0.40625 z m 104.125,76.0625 c 3.94067,1.52352 2.28912,7.37979 2.79322,10.7154 -1.44715,16.08921 -2.02815,34.36921 -13.60572,46.81585 -2.14789,1.65202 -4.76749,3.42216 -7.65625,3.25 4.003,-19.14388 6.99747,-38.43066 12.71875,-57.03125 1.4582,-1.7997 3.43465,-3.33046 5.75,-3.75 z"
       style="fill:#ffffff;fill-opacity:1" />
    <path
       inkscape:connector-curvature="0"
       id="path3026"
       d="m 111.53125,504.71875 c -15.556431,2.26069 -31.172522,4.11724 -46.6875,6.65625 -8.329267,43.00517 -19.64212,85.46812 -26.21875,128.78125 -0.803654,16.90862 11.892234,34.32334 29.4375,35.8125 27.841261,5.26502 56.92502,-11.73492 67.86848,-37.46486 10.32525,-21.56066 13.72046,-47.63611 5.81902,-70.47264 -5.84366,-14.04159 -22.37789,-22.10305 -37.0625,-17.9375 3.52968,-15.16663 6.40223,-30.52578 9.6875,-45.78125 -0.94792,0.13542 -1.89583,0.27083 -2.84375,0.40625 z m -7.84375,76.25 c 5.03307,5.06664 3.13016,13.29273 3.40625,19.8125 -1.1959,13.5032 -5.81944,27.81257 -14.9375,37.84375 -2.5357,1.79008 -6.903335,0.11505 -5.094715,-3.42978 3.428359,-16.49996 7.202224,-33.0529 10.657215,-49.66397 0.228085,-3.79913 2.54949,-5.00275 5.96875,-4.5625 z"
       style="fill:#ffffff" />
    <path
       inkscape:connector-curvature="0"
       id="path3028"
       d="m 250.875,542.71875 c -7.52416,1.09565 -6.5926,10.18537 -8.4375,15.53125 -10.96536,53.62109 -22.75397,107.18654 -33.37552,160.76889 -0.10002,4.11708 -2.79712,11.23129 -0.95727,13.49946 16.22555,-3.2345 32.30258,-7.12375 48.45779,-10.7996 2.82119,-15.43855 5.77708,-30.8521 8.8125,-46.25 12.0323,4.81855 25.92179,1.91542 37.5,-2.84375 23.2855,-11.37553 34.10654,-37.67244 37.28125,-62.15625 2.27057,-16.11951 2.88308,-34.54186 -6.78125,-48.46875 -9.33149,-12.58919 -27.50279,-14.83996 -41.0625,-10.40625 1.59676,-4.92003 -2.49635,-10.24506 -7.78125,-8.90625 -11.21876,0.008 -22.43758,-0.0221 -33.65625,0.0312 z m 41.09375,39 c 4.14299,2.2832 2.13246,8.58343 2.54326,12.52354 -1.51529,15.76473 -2.32249,33.80056 -14.10576,45.63271 -2.13438,1.39238 -4.49477,2.62469 -7.0625,2.5625 4.32797,-19.0639 6.70157,-38.78766 12.96875,-57.1875 1.4866,-1.76654 3.31302,-3.28724 5.65625,-3.53125 z"
       style="fill:#ffffff;fill-opacity:1" />
    <path
       inkscape:connector-curvature="0"
       id="path3030"
       d="m 198.59375,547.90625 c -26.15697,1.05339 -47.02053,22.1523 -55.38919,45.715 -7.83624,19.9843 -11.73803,43.67906 -3.04831,63.91 10.68877,19.13497 36.59514,22.91049 55.95486,16.32793 13.6049,-4.4499 27.03081,-12.86878 34.42191,-25.34954 3.36786,-11.28228 4.3232,-23.13562 4.99823,-34.88464 -13.47214,8.3867 -21.85648,25.16364 -38.28125,28.0625 -4.37709,0.33406 -13.17787,1.97204 -12.65625,-5.15625 -0.43674,-3.01014 -1.5401,-7.45757 3,-6.875 24.97139,-4.93922 47.88002,-26.70005 47.5625,-53.25 0.15908,-12.50706 -8.27733,-25.65578 -21.34375,-27.3125 -4.99622,-1.08446 -10.10778,-1.31705 -15.21875,-1.1875 z m 2.6875,31.46875 c -1.06351,7.58216 -5.22821,14.8886 -11.125,19.71875 2.60171,-7.38509 5.65799,-14.93297 11.21875,-20.65625 l -0.0937,0.9375 z"
       style="fill:#ffffff" />
    <path
       inkscape:connector-curvature="0"
       id="path3032"
       d="m 718.09375,549.65625 c -24.4114,-1.01184 -44.7884,17.72411 -54.43276,38.72958 -7.723,14.58106 -9.50186,31.38917 -11.87974,47.33292 -1.13615,2.10863 -4.08024,5.48121 -6.25,4.0625 -0.0157,-10.09073 4.37768,-19.51434 5.36874,-29.57007 4.03376,-19.8123 8.28596,-39.5798 12.28751,-59.39868 -16.0816,-0.32443 -32.16688,-0.0375 -48.25,-0.15625 -6.89704,27.90964 -9.97741,57.02755 -19.375,84.15625 -0.59927,1.51477 -4.53128,7.35107 -4.03125,2.75 1.2694,-11.5097 4.87329,-22.50456 6.59632,-33.99213 3.61918,-17.58744 7.33743,-35.15423 11.02868,-52.72662 -16.1023,-0.34248 -32.20833,-0.0991 -48.3125,-0.1875 -5.67121,31.61645 -15.31904,62.60047 -18.21875,94.65625 0.0121,14.92178 10.34032,30.12169 25.82609,31.93711 12.74708,2.69001 26.49423,-3.1644 34.98641,-11.81211 8.92596,14.06782 29.07641,15.11885 43.03125,8.59375 5.6112,-2.01974 10.74804,-6.95382 14.90625,-9.71875 4.82891,6.53843 12.24491,10.7438 20.0625,12.625 -12.47278,10.50349 -16.10891,31.51062 -4.46875,43.90625 15.95606,16.24491 45.13879,12.92978 59.46875,-3.71875 10.89063,-10.73182 13.14979,-26.48114 16.53125,-40.6875 23.73685,-7.67503 38.38733,-32.26556 40.3125,-56.375 -8.01931,2.91799 -18.54077,-2.74675 -24.875,4.46875 -2.8951,6.18236 -5.14084,12.67997 -9.15625,18.3125 6.56126,-30.68182 13.17795,-61.35178 19.75,-92.03125 -16.70662,-0.31381 -33.41673,-0.0657 -50.125,-0.125 -2.35375,-0.16773 -7.35323,-1.322 -10.78125,-1.03125 z m 6.3125,29.71875 c 1.41291,1.7045 -1.73178,4.89435 -1.28943,7.13016 -4.05905,16.08113 -5.4586,33.11677 -11.74182,48.43234 -1.60858,2.26756 -5.22307,6.88754 -8,4.40625 -3.10946,-8.61641 -0.01,-18.20558 1.06537,-27.00638 2.89821,-12.3634 7.49999,-26.08366 18.74713,-32.83737 0.39025,-0.056 0.82135,-0.007 1.21875,-0.125 z"
       style="fill:#ffffff" />
  </g>
  <path
     style="fill:#ffffff"
     d="m 404.17603,44.562254 c -3.183,-0.617332 -4.42838,4.707023 -7.125,2.21875 -2.6805,-0.962914 -5.16845,2.46008 -6.84375,-0.59375 -7.40118,-5.530575 -18.23649,5.435284 -12.65625,12.78125 0.81956,2.82865 5.77573,5.351842 2.46875,8.21875 -2.83433,6.287525 2.50412,11.949392 4.21875,17.53125 -6.57428,-0.950323 -15.93606,1.481184 -16.28125,9.4375 -2.67768,11.017106 -3.91997,22.761656 -7.09375,33.406246 -3.45596,0.94489 -7.75977,0.47627 -8.40625,-3.65625 -3.58047,-7.53223 -6.72809,-19.31477 -17.09375,-19.375 -4.36289,-0.084 -8.50648,1.46346 -12.71875,2.40625 0.67898,8.48223 1.23189,17.45778 5.84375,24.84375 -2.75604,9.26195 -5.74801,20.48561 0.84375,28.8125 0.52672,1.57311 -4.24485,-0.0276 -5.90625,0.53125 -7.11024,-0.73033 -13.77012,5.42419 -12.3125,12.6875 -65.0112,-0.0273 -130.19043,-0.30071 -195.25,-0.3125 -5.85171,0.6945 -10.76504,6.4577 -9.03858,12.43747 -0.27009,34.98898 -0.0776,69.97921 -0.11767,104.96878 16.80208,0 33.60417,0 50.40625,0 0.32427,-16.85326 -0.4074,-33.71193 0.125,-50.5625 16.12309,-0.40255 32.2527,-0.15111 48.375,0.15625 -0.54967,16.80365 1.02182,33.60451 0.25,50.40625 16.84375,0 33.6875,0 50.53125,0 0.62697,-16.88291 -0.93275,-33.78749 0.25,-50.65625 16.08692,0.11288 32.91682,-0.0154 48.625,0.375 -0.23173,16.72479 -0.10421,33.52744 -0.15625,50.28125 16.84375,0 33.6875,0 50.53125,0 0.15987,-16.77038 -0.90138,-33.55507 0.125,-50.3125 26.40618,-0.10163 52.81467,-0.20584 79.21875,0.21875 0.9063,16.68787 -0.22345,33.39756 0.28125,50.09375 16.85417,0 33.70833,0 50.5625,0 0.54043,-16.71615 -0.56912,-33.44757 0.34375,-50.15625 16.08226,-0.1785 32.1692,-0.33777 48.25,0.0312 0.42885,16.70625 -0.20035,33.41761 0.15625,50.125 16.84375,0 33.6875,0 50.53125,0 0.42626,-16.61251 -0.41958,-33.23439 0.1875,-49.84375 16.31088,-0.12933 32.63682,-0.6139 48.9375,0.21875 -0.53945,15.52354 -0.18519,31.20727 -0.1875,46.65625 2.90317,6.03227 10.86265,1.66086 15.875,2.96875 11.80208,0 23.60417,0 35.40625,0 -0.70369,-36.53686 1.63511,-73.2805 -0.5,-109.6875 -4.55559,-9.43485 -16.74226,-7.5566 -25.375,-7.46875 -59.67596,-0.20872 -119.93938,0.73325 -179.25,-0.0937 0.331,-6.12313 -4.06709,-13.32266 -11,-12.21875 -2.47784,-0.69565 -9.68063,1.84502 -6.65625,-2.0625 3.57237,-5.78536 4.56482,-12.98974 2.28125,-19.28125 -1.27858,-4.41781 -3.3893,-9.63336 0.3125,-13.5625 2.58273,-6.32594 2.78897,-13.34857 1.8125,-20.03125 -7.52527,-3.4176 -19.61714,-3.42166 -22.6875,5.9375 -3.26728,4.70045 -4.06154,10.92719 -8.25,14.96875 -2.07954,-0.11572 -7.59892,2.06667 -6.59375,-2.0625 -3.32193,-12.40241 -3.18206,-26.339439 -9.4375,-37.749996 -3.30121,-3.820878 -9.33015,-2.320061 -13.15625,-3.0625 1.2923,-5.573804 7.11129,-10.690312 4,-16.84375 -1.61,-2.867324 -0.3145,-5.500058 1.78125,-7.53125 4.37058,-6.702945 0.26995,-16.463267 -8.4375,-15.59375 z"
     id="svg_2-9"
     inkscape:connector-curvature="0" />
  <path
     style="fill:#7f7f7f"
     inkscape:connector-curvature="0"
     d="m 382.12857,54.01214 c -0.32001,-2.38 2.97998,-4.18 4.75,-2.49 1.27999,1.27 2.35,2.74 3.52999,4.1 1.84,-0.89 3.56,-3.63 5.79999,-2.4 1.26001,0.58 2.34,1.46 3.51001,2.2 1.60001,-1.63 2.82999,-3.7 4.87,-4.83 1.51999,0.25 3.67999,0.74 3.63,2.7 0.29999,3.62 -3.14999,6.05 -4.39001,9.19999 -1.78998,2.86001 1.75,5.59002 1.48001,8.59002 0.26001,3.70999 -2.51999,6.45999 -4.19,9.46998 -0.5,3.35001 -0.06,6.77001 0,10.14 4.1,0.36 8.23001,-0.04 12.33999,0.33 1.83002,0.05 3.05002,1.65001 3.37,3.33001 2.61001,12.24 4.90002,24.55 7.55002,36.78 0.57998,3.45001 4.63,2.47 7.13,2.62001 3.16,-0.39 7.47,0.93998 9.53998,-2.24001 3.36001,-6.03999 6.27002,-12.33 9.61001,-18.38 1.88999,-4.03 7.18,-2.34 10.62,-1.82 0.60998,4.29 -0.82001,8.45999 -1.70999,12.59999 -0.4,2.39 -2.45001,3.96001 -3.33002,6.12001 1.23001,6.34 2.85001,12.61 3.74002,19 -0.77002,6.62 -7.14001,11.51 -7.22,18.30001 5.91998,0.5 11.85999,0.11999 17.79999,0.26999 1.82999,-0.12999 3.04001,1.83999 3.11002,3.48001 0.15997,2.85998 0.06,5.72999 0.23999,8.58999 4.82,1.04 9.73999,0.31 14.61999,0.41001 60.69,0.02 121.38001,-0.21001 182.07001,-0.26001 3.75,-0.18 9.29999,1.40001 8.89996,6.11999 0.15002,33.02002 -0.40997,66.04001 -0.38995,99.06 -13.12,0.02 -26.23999,0.01 -39.36005,0.01 0.02,-15.66 0.27002,-31.31 0.08,-46.95999 -0.21997,-3.06 -3.88001,-3.18002 -6.20996,-3.06 -18,0.22 -36.02002,-0.36001 -54,0.28 -0.38001,1.54999 -0.71003,3.13 -0.68006,4.72998 0.04,15.01001 0.05,30.01001 0.04,45.01001 -12.90002,0 -25.79999,0 -38.69,0 -0.16003,-16.54999 0.5,-33.12 -0.23999,-49.64999 -3.43994,-0.91 -7.01996,-0.6 -10.52997,-0.63 -14.67999,0 -29.35998,0.01 -44.03998,-0.03 -1.87002,-0.03 -3.72,0.23001 -5.54001,0.57999 -0.53,16.56 -0.09,33.15002 -0.23999,49.73001 -12.88,0 -25.77002,0 -38.65002,0 -0.1,-16.5 0.30002,-33.01001 -0.12,-49.5 -1.44,-0.36999 -2.85998,-0.84 -4.35,-0.82001 -27.35999,-0.01 -54.72998,-0.06 -82.09,-0.13 -1.47998,0.02 -2.94998,0.14001 -4.41998,0.27002 -0.56,3.36999 -0.88001,6.76999 -0.85001,10.19 0.19001,13.32999 -0.17999,26.66 0.16999,39.98999 -12.81998,0 -25.62998,0.01 -38.44999,-0.01 0.01,-15.67999 0.06,-31.34998 0.01,-47.03 0.23999,-1.64999 -0.89001,-3.56 -2.71002,-3.45999 -17.91,0.08 -35.81997,-0.19 -53.72998,-0.23999 -2.21002,-0.27002 -4.83999,1.16 -4.39001,3.69998 -0.12,15.68003 0.14001,31.36002 0.14999,47.04001 -12.81999,0 -25.63998,0 -38.45999,-0.01 -0.09,-7.66 0.33,-15.33999 -0.35001,-22.97998 -0.30999,-9.02002 0.28002,-18.07001 -0.31999,-27.08002 -1.83,-0.35998 -3.69,-0.58999 -5.55,-0.55999 -17.01,0.03 -34.02,-0.09 -51.03,-0.18 -1.70999,-0.11001 -3.89999,1.04001 -3.61999,3.01999 -0.10001,15.93002 0.01,31.86002 0.05,47.79001 -12.82001,0 -25.64,0 -38.46001,0 0,-31 0,-62 0,-92.98999 0.01,-3.63 -0.17,-7.29001 0.41001,-10.88 2.07,-0.88001 4.16999,-1.93001 6.47999,-1.95002 57.03,0.97 114.07001,0.45002 171.11,0.66001 8.73999,-0.17 17.51001,0.38 26.23999,-0.25 1.10001,-3.87 -1.64999,-9.37999 2.27002,-11.95999 6.43,-0.75 12.94,0.28 19.38999,-0.43001 -1.09,-6.33 -5.94001,-11.25 -7.62,-17.36 0.45001,-6.98999 2.98999,-13.66001 4.04001,-20.58 -1.38,-1.53 -3.31,-2.84 -3.69,-5 -0.94,-4.18 -2.04001,-8.36001 -2.25,-12.65999 3.75,-0.99001 9.85998,-2.36 11.67999,2.23999 3.14002,5.64 5.61002,11.63 8.85001,17.22 1.98001,3.76001 6.72,2.38 10.13998,2.65001 2.44,-0.09 6.49002,0.45999 6.99002,-2.83 2.19998,-11.56 4.60001,-23.08001 6.9,-34.63001 0.38,-1.57001 0.54001,-3.28999 1.64999,-4.56 4.76999,-1.51001 9.87,-0.36 14.76001,-1.22 -0.10001,-3.39999 0.44998,-6.89 -0.24002,-10.24 -1.76999,-2.55001 -4.39999,-4.93 -4.44998,-8.26 -0.31,-2.82001 1.86999,-5.05 2.17999,-7.75 -1.01999,-3.74 -4.94998,-6.25 -5.23999,-10.22 z"
     id="svg_2" />
  <path
     inkscape:connector-curvature="0"
     id="svg_3"
     d="m 381.37231,298.26214 c -12.19998,1.70999 -24.42499,3.33374 -36.625,5.09375 -6.66998,29.87 -12.53,59.9025 -19,89.8125 -4.54001,20.87 -8.51623,41.85873 -13.15625,62.71875 11.98001,0.26001 23.95749,0.23999 35.9375,0 3.94,-20.20001 8.65625,-40.23752 12.65625,-60.4375 1.76999,-9.48001 4.03375,-19.63876 11.09375,-26.71875 2.48001,-2.82001 7.53625,-3.89752 10.15625,-0.6875 1.92999,2.91998 1.69873,6.64999 1.46875,10 -1.75,14.60001 -6.85626,28.54373 -8.90625,43.09375 -1.78,9.85001 -1.30499,21.65128 6.375,29.03125 7.53,6.85004 18.49124,8.77625 28.28125,6.90625 5.68997,-1.06 10.64499,-4.19501 15.375,-7.375 -4.31,20.44 -8.58002,40.90253 -13,61.3125 11.95999,-2.09003 23.74503,-5.22998 35.625,-7.75 2.29001,-0.10999 2.4025,-2.66498 2.8125,-4.375 2.95999,-16.22998 6.215,-32.40381 9.375,-48.59375 1.82999,2.25995 3.60126,4.94501 6.53125,5.875 6.14999,2.16003 12.88,1.69373 19.25,0.84375 13.85001,-1.85004 26.1225,-10.68375 33.5625,-22.34375 8.73004,-13.96002 13.09625,-30.285 14.15625,-46.625 1.14001,-9.01001 0.70251,-18.2825 -1.6875,-27.0625 -2.25,-7.71002 -7.73248,-14.96252 -15.5625,-17.5625 -11.52997,-3.89001 -25.26877,-1.90625 -34.46875,6.34375 1.10001,-5.01999 2.23126,-10.06375 3.28125,-15.09375 -11.85998,-0.20999 -23.73373,-0.0638 -35.59375,-0.0937 -5.63998,24.16998 -10.25626,48.56375 -15.40625,72.84375 -1.05002,4.78998 -3.35376,9.17499 -5.34375,13.625 -1.89999,3.79001 -3.9675,8 -7.9375,10 -2.89002,1.13 -6.48999,2.02499 -9.25,0.125 -2.38998,-2.38001 -2.44373,-6.0575 -2.09375,-9.1875 3.07001,-19.38 11.07376,-38.13126 10.09375,-58.03125 -0.10001,-8.10001 -5.17123,-15.85877 -12.53125,-19.21875 -6.85999,-3.30002 -14.83749,-3.04877 -22.1875,-1.96875 -5.84,0.94998 -10.42001,4.94748 -14.25,9.1875 2.92999,-18.04001 7.47876,-35.75751 10.96875,-53.6875 z m 109.0625,63.3125 c 2.02979,-0.0469 4.03125,0.59375 5.34375,2.25 2.66998,3.20001 3.05374,7.61502 3.34375,11.625 0.14999,9.78 -1.49625,19.49252 -3.40625,29.0625 -1.69998,7.22 -3.92001,14.45874 -8,20.71875 -2.29001,3.73001 -6.19125,6.05624 -10.03125,7.90625 -3.99002,1.83002 -9.31375,2.12125 -12.59375,-1.21875 0.05,-0.69 0.15875,-2.09125 0.21875,-2.78125 3.72998,-18.38 7.78372,-36.67123 11.59375,-55.03125 0.87,-5.37 5.07999,-9.77124 10,-11.78125 1.08374,-0.43874 2.31338,-0.72188 3.53125,-0.75 z"
     style="fill:#6e6d96;fill-opacity:1" />
  <path
     inkscape:connector-curvature="0"
     id="svg_4"
     d="m 91.15356,297.32464 c -12.290001,1.73001 -24.593754,3.26749 -36.84375,5.1875 -7.700001,37.64999 -16.224998,75.13126 -23.875,112.78125 -1.619999,7.36999 -1.821251,15.15625 0.46875,22.40625 2.509998,8.31 9.62125,14.72247 17.78125,17.3125 7.610001,2.22998 15.698753,1.98248 23.46875,0.8125 10.590004,-1.51001 20.44625,-6.76126 28.40625,-13.78125 13.43,-13.22 20.69376,-31.62125 23.34375,-50.03125 0.58,-11.26001 1.34625,-22.96002 -2.59375,-33.75 -2.27,-6.85001 -7.48126,-12.85873 -14.28125,-15.46875 -4.28,-1.78998 -8.99125,-1.50873 -13.53125,-1.46875 -4.709999,-0.05 -8.758751,2.64377 -12.71875,4.84375 3.559997,-16.25998 7.035004,-32.53375 10.375,-48.84375 z m -3.21875,63.34375 c 1.368751,-0.075 2.6925,0.13499 3.8125,1.125 3.44,2.86002 4.89626,7.40875 5.40625,11.71875 2.17001,13.79001 -1.30625,27.81 -6.65625,40.5 -2.300003,5.31 -5.279999,10.44876 -9.5,14.46875 -3.760002,3.57999 -10.21875,3.77374 -13.96875,0.0937 -2.829994,-3.69 -1.690002,-8.51627 -0.75,-12.65625 3.699997,-16.95001 7.489998,-33.88501 11,-50.875 0.389999,-3.06 4.192497,-3.18124 6.5625,-3.78125 1.305001,-0.14999 2.724999,-0.51875 4.09375,-0.59375 z" />
  <path
     inkscape:connector-curvature="0"
     style="fill:#6e6d96;fill-opacity:1"
     id="svg_5"
     d="m 253.02856,334.57464 c -5.9175,0.009 -11.83499,0.0413 -17.75,0.0312 -3.28,13.01001 -5.59874,26.24374 -8.46875,39.34375 -2.93999,13.46002 -5.03,27.14374 -9,40.34375 -0.48,6.92999 -2.01625,13.73627 -3.90625,20.40625 -2.83,16.42999 -6.82124,32.63 -10.03125,49 -1.75999,9.09998 -4.27249,18.08252 -5.3125,27.3125 12.45001,-2.54999 24.85875,-5.42499 37.21875,-8.375 3.17999,-17.46002 6.66126,-34.88251 10.03125,-52.3125 1.85002,2.23999 3.64252,4.90375 6.5625,5.84375 5.34003,1.94 11.14874,1.67755 16.71875,1.1875 13.07001,-1.13 25.26752,-8.26498 33.1875,-18.625 8.43002,-11.06 13.04376,-24.60623 15.59375,-38.15625 1.97,-13.06 3.51126,-26.67248 -0.21875,-39.5625 -2.35999,-7.97 -8.12375,-15.45377 -16.34375,-17.84375 -11.34998,-3.48001 -24.70624,-1.51627 -33.65625,6.59375 1.08002,-5.02002 2.215,-10.03375 3.125,-15.09375 -5.91499,-0.105 -11.8325,-0.1025 -17.75,-0.0937 z m 23.65625,27 c 2.16758,0.0354 4.28751,0.8625 5.53125,2.78125 2.82999,4.26001 2.92502,9.67499 2.875,14.625 -0.56,11.94 -2.43625,23.93252 -6.15625,35.3125 -2.43002,6.56 -5.44998,13.715 -12,17.125 -4.72998,3.29001 -11.21497,4.23999 -16.125,0.75 3.79001,-19.54001 8.04874,-38.99875 12.21875,-58.46875 0.95999,-5.20999 5.08499,-9.43625 9.875,-11.40625 1.16624,-0.495 2.4807,-0.74002 3.78125,-0.71875 z" />
  <path
     inkscape:connector-curvature="0"
     id="svg_6"
     d="m 186.68481,339.73089 c -6.50322,-0.0721 -13.01313,1.13374 -19.09375,3.40625 -8.17,3.51001 -15.32625,9.12125 -21.15625,15.78125 -5.56,6.20999 -9.26875,13.77127 -12.71875,21.28125 -6.44,15.42999 -9.27499,32.44376 -7.375,49.09375 1.32001,7.82999 4.7025,15.89624 11.5625,20.40625 10.34,7.32001 23.94125,8.17621 36.03125,5.65625 13.68001,-2.98004 25.96875,-11.04626 34.96875,-21.65625 1.89,-6.66998 3.42625,-13.47626 3.90625,-20.40625 -7.23,6.39002 -13.53626,14.3475 -22.65625,18.1875 -5.55,2.33002 -11.6425,2.53751 -17.5625,2.1875 -4.03,-0.13001 -8.11751,-2.85877 -8.9375,-6.96875 -1.23,-5.12003 -1.20252,-10.55002 -0.5625,-15.75 4.21999,-0.94 8.63001,-1.01749 12.75,-2.4375 11.41,-3.62 21.56375,-10.91626 29.09375,-20.15625 7.14,-8.98001 9.55749,-20.97751 7.9375,-32.1875 -1.47,-5.96002 -5.27124,-11.77499 -11.28125,-13.875 -4.795,-1.68876 -9.84819,-2.50644 -14.90625,-2.5625 z m 2.21875,15.71875 c 2.19859,-0.18446 3.06874,2.70627 3.125,4.5625 0.12999,8.90002 -2.87001,17.90625 -8.75,24.65625 -4.64,5.51999 -10.77499,10.88126 -18.375,11.03125 3.11,-11.61002 7.18875,-23.22375 14.21875,-33.09375 2.45999,-3.01001 5.22375,-6.52249 9.34375,-7.0625 0.15875,-0.0406 0.29093,-0.0815 0.4375,-0.0937 z" />
  <path
     inkscape:connector-curvature="0"
     id="svg_7"
     d="m 702.49731,341.54339 c -2.41844,0.0195 -4.82999,0.26625 -7.0625,0.59375 -11.37994,1 -21.58124,7.33002 -29.03125,15.75 -12.41998,13.37 -19.27502,31.03375 -22.125,48.84375 -1.03003,6.84 0.47369,14.74124 -4.65625,20.28125 -3.22003,4.85999 -11.44122,7.71875 -15.53125,2.46875 -1.34998,-7.88998 1.83875,-15.56125 2.96875,-23.28125 4.35004,-21.20999 8.79755,-42.39374 13.1875,-63.59375 -12.01996,-0.10001 -24.04248,0.008 -36.0625,-0.0625 -4.85999,23.37 -9.6825,46.77377 -14.8125,70.09375 -1.75,6.91 -4.50873,14.29627 -10.71875,18.40625 -2.53998,1.40002 -6.96503,2.22748 -8.125,-1.3125 -1.54999,-5.07001 -0.26752,-10.5025 0.8125,-15.5625 4.77002,-23.88001 9.8125,-47.70123 14.8125,-71.53125 -12,-0.16998 -24,-0.0138 -36,-0.0937 -4.89002,23.04999 -9.70752,46.10501 -14.6875,69.125 -1.34003,8 -3.39752,16.20248 -1.6875,24.3125 0.67999,5.73001 3.09253,11.45001 7.5625,15.25 8.72998,7.81006 22.31879,8.27124 32.46875,3.03125 7.26001,-3.47998 12.43378,-10.12 15.84375,-17.25 0.82001,6.17004 2.86249,12.89124 8.3125,16.53125 8.19,5.66998 19.03369,4.70374 28.09375,1.84375 8.52997,-2.67999 14.935,-9.14001 20.625,-15.75 2.19,4.32001 4.61005,8.68872 8.5,11.71875 12.65002,10.04999 33.59998,8.15125 43.25,-5.21875 -0.67004,2.46002 -1.375,4.90375 -2.125,7.34375 -11.96997,4.59003 -25.06378,9.64502 -32.34375,20.875 -4.65997,7.39001 -4.59875,17.23749 -0.71875,24.9375 5.81,9.88995 18.6225,12.83374 29.3125,11.59375 10.15997,-0.57001 19.60376,-6.1825 25.84375,-14.0625 8.91003,-11.16998 10.55621,-25.7063 13.65625,-39.15625 11.03998,-3.11005 21.40875,-9.60376 27.71875,-19.34375 5.01001,-7.79001 9.39252,-16.32248 10.8125,-25.5625 -4.01996,0.04 -8.0625,-0.1575 -12.0625,0.0625 -0.27002,0.29001 -0.82373,0.85623 -1.09375,1.15625 -2.44,6.50998 -4.97876,13.12875 -9.21875,18.71875 -3.45001,4.80002 -8.4425,8.17871 -13.5625,10.96875 0.89002,-8.31006 3.31628,-16.34125 4.90625,-24.53125 5.46002,-25.51001 10.8775,-51.04126 16.4375,-76.53125 -11.79999,-0.11002 -23.60626,-0.0212 -35.40625,-0.0312 0.14996,2.41 0.29126,4.80875 0.53125,7.21875 -3.92248,-6.51002 -11.36967,-8.30859 -18.625,-8.25 z m 5.84375,17.8125 c 2.56513,0.03 5.10624,1.07499 6.5625,3.25 0.58002,2.20001 0.11371,4.465 -0.40625,6.625 -3.44,15.29999 -6.6875,30.66 -9.9375,46 -1.40002,6.39999 -5.17126,12.4975 -11.03125,15.6875 -2.64001,1.00998 -5.78626,2.36374 -8.40625,0.59375 -2.76001,-1.82001 -3.92126,-5.32874 -4.28125,-8.46875 -1.13,-17.16 2.67999,-34.65875 11,-49.71875 3.33002,-4.87 6.40375,-10.52875 12.09375,-12.96875 1.335,-0.67125 2.86717,-1.01799 4.40625,-1 z m -15.78125,109.03125 c -2.12,7.20001 -3.07129,15.70001 -9.28125,20.75 -1.79004,0.78003 -4.59003,0.8075 -5.75,-1.0625 -2.60999,-2.72998 -1.21875,-6.78247 0.53125,-9.5625 3.45996,-5.01001 9.19995,-7.55499 14.5,-10.125 z" />
</svg>
